<?xml version="1.0" encoding="utf-8"?>
<!-- Generator: Adobe Illustrator 26.1.0, SVG Export Plug-In . SVG Version: 6.00 Build 0)  -->
<svg version="1.1" id="Layer_1" xmlns:figma="http://www.figma.com/figma/ns"
	 xmlns="http://www.w3.org/2000/svg" xmlns:xlink="http://www.w3.org/1999/xlink" x="0px" y="0px" viewBox="0 0 74.9 24"
	 style="enable-background:new 0 0 74.9 24;" xml:space="preserve">
<style type="text/css">
	.st0{font-family:'Futura-Bold';}
	.st1{font-size:25.7863px;}
	.st2{fill-rule:evenodd;clip-rule:evenodd;fill:#020202;}
	.st3{fill-rule:evenodd;clip-rule:evenodd;fill:#FFFFFF;}
</style>
<text transform="matrix(1 0 0 1 0.7866 22.1982)" class="st0 st1">ASL</text>
<g>
	<path class="st2" d="M67.3,2c0.1,0,0.1,0.1,0.2,0.2c0.1,0.2,0.3,0.3,0.4,0.5c0.4,0.5,0.8,0.9,1.3,1.4c1.6,1.7,3.1,3.5,4.7,5.2
		c-3.7,4.3-7.3,8.6-11,12.9c0,0,0,0,0,0c-2.7-3.2-5.4-6.4-8.2-9.6c-0.7-0.8-1.4-1.7-2.1-2.5c-0.2-0.2-0.3-0.4-0.5-0.6
		c0-0.1-0.2-0.2-0.2-0.2c2.2-2.4,4.4-4.8,6.5-7.3c0.1,0,0.3,0.2,0.4,0.3c0.3,0.3,0.6,0.5,0.9,0.8c1,0.8,2.1,1.7,3.1,2.5
		C64.4,4.4,65.8,3.2,67.3,2z"/>
	<path class="st3" d="M58.7,4.9c-1,1.1-2,2.3-3.1,3.4c-0.2,0.3-0.5,0.5-0.7,0.8c0,0-0.2,0.2-0.2,0.3c2.7,3.2,5.5,6.4,8.2,9.6
		c0,0,0,0,0.1,0c2.7-3.2,5.4-6.4,8.2-9.6c-1.3-1.5-2.7-3-4-4.4c-1.4,1.1-2.8,2.3-4.2,3.4c0,0,0,0,0,0C61.5,7.2,60.1,6,58.7,4.9z"/>
</g>
</svg>
